<?xml version="1.0" standalone="no"?>
<!DOCTYPE svg PUBLIC "-//W3C//DTD SVG 20010904//EN"
 "http://www.w3.org/TR/2001/REC-SVG-20010904/DTD/svg10.dtd">
<svg version="1.0" xmlns="http://www.w3.org/2000/svg"
 width="700.000000pt" height="700.000000pt" viewBox="0 0 700.000000 700.000000"
 preserveAspectRatio="xMidYMid meet">
<metadata>
Created by potrace 1.11, written by Peter Selinger 2001-2013
</metadata>
<g transform="translate(0.000000,700.000000) scale(0.100000,-0.100000)"
fill="#000000" stroke="none">
<path d="M4011 6099 c14 -28 20 -282 7 -319 -12 -33 -47 -70 -78 -82 -16 -6
-388 -10 -995 -10 l-970 0 -62 -44 c-35 -25 -80 -60 -100 -79 -21 -19 -41 -35
-45 -35 -5 0 -8 -4 -8 -9 0 -6 423 -10 1078 -9 747 0 1086 -4 1105 -11 68 -26
80 -59 82 -224 1 -122 -1 -142 -20 -175 -43 -78 67 -72 -1392 -72 l-1302 0
-54 -84 c-195 -298 -324 -631 -386 -997 -28 -160 -36 -267 -35 -459 0 -222 8
-299 50 -529 41 -220 144 -501 267 -730 36 -67 41 -72 53 -56 8 10 26 27 41
37 26 17 69 18 766 18 581 0 739 -3 742 -12 2 -7 6 -35 9 -63 14 -130 30 -210
67 -334 10 -35 19 -65 19 -67 0 -2 -306 -5 -681 -6 l-680 -3 108 -110 c120
-121 188 -181 296 -262 40 -30 79 -60 87 -66 8 -7 31 -22 50 -33 19 -12 64
-39 100 -61 275 -169 647 -305 950 -348 19 -3 49 -7 65 -10 129 -20 428 -26
580 -12 90 9 288 37 293 42 2 2 -34 17 -80 35 -301 116 -550 314 -728 580
-119 176 -214 441 -237 658 -47 452 107 892 426 1212 58 59 137 130 175 158
208 152 451 249 701 280 74 9 280 9 360 0 484 -54 941 -374 1159 -814 77 -156
128 -312 142 -442 3 -31 9 -63 13 -70 10 -17 91 201 125 334 27 108 53 243 62
314 3 25 7 56 9 69 9 49 18 219 18 316 0 420 -93 807 -283 1185 -56 112 -163
294 -197 335 -5 6 -36 46 -69 90 -221 290 -521 546 -847 722 -213 114 -470
210 -677 253 -30 7 -63 14 -73 17 -17 4 -17 2 -6 -18z m-16 -1256 c11 -6 31
-23 45 -38 24 -25 25 -34 29 -163 4 -162 -5 -200 -56 -239 l-36 -28 -1321 0
c-1238 0 -1323 1 -1356 17 -62 31 -73 64 -75 213 -1 169 12 212 77 239 38 17
2664 16 2693 -1z m-8 -653 c52 -19 77 -64 77 -144 l1 -69 -90 -27 c-146 -43
-310 -118 -433 -197 l-54 -34 -1077 0 c-687 0 -1086 4 -1103 10 -14 5 -39 26
-54 46 -28 37 -28 38 -28 184 0 139 2 150 24 180 45 64 -39 60 1396 61 886 0
1321 -3 1341 -10z m-717 -651 c0 -3 -14 -18 -31 -35 -18 -16 -66 -72 -108
-125 -72 -90 -99 -131 -174 -259 l-32 -55 -775 -1 c-726 -1 -777 0 -811 17
-60 30 -71 70 -67 242 l3 147 31 31 c17 17 46 34 63 37 39 8 1901 9 1901 1z
m-420 -659 c0 -4 -7 -27 -16 -51 -20 -58 -61 -257 -69 -344 -4 -38 -11 -72
-15 -75 -5 -3 -348 -5 -764 -4 -743 1 -757 1 -784 21 -56 42 -64 71 -64 224 0
117 3 144 18 167 23 35 42 50 79 60 38 11 1615 13 1615 2z"/>
<path d="M4437 3474 c-1 -1 -36 -4 -77 -7 -350 -26 -702 -243 -878 -542 -167
-282 -211 -599 -126 -905 67 -243 232 -483 428 -622 117 -83 291 -163 398
-183 13 -3 48 -10 78 -17 93 -20 340 -15 453 10 248 54 494 206 649 402 67 84
175 287 193 365 2 6 12 46 23 90 33 126 40 220 28 350 -37 386 -242 713 -564
902 -82 48 -254 113 -351 132 -76 16 -245 32 -254 25z m311 -503 c49 -14 51
-22 26 -115 -23 -84 -30 -90 -96 -79 -69 11 -172 -1 -233 -28 -53 -23 -134
-98 -159 -147 l-16 -31 211 1 c120 0 215 -4 220 -9 10 -10 -8 -109 -24 -130
-7 -10 -65 -13 -228 -13 l-219 0 0 -45 c0 -52 -25 -47 215 -46 83 0 165 -2
183 -5 36 -6 35 -2 17 -99 -11 -54 -14 -55 -201 -55 l-174 0 20 -40 c28 -55
93 -115 158 -146 72 -34 150 -43 237 -27 39 7 75 11 82 9 6 -3 14 -24 18 -48
3 -24 11 -58 17 -76 18 -58 6 -77 -59 -92 -56 -12 -182 -15 -233 -5 -14 3 -41
8 -60 11 -59 10 -192 81 -245 132 -70 65 -103 112 -141 201 l-33 75 -41 -3
c-57 -4 -70 10 -70 78 0 70 7 81 53 83 37 1 37 2 37 45 0 23 -3 43 -7 44 -5 1
-20 2 -34 3 -43 4 -49 14 -49 81 0 72 5 79 68 81 49 2 53 5 72 54 65 170 254
318 443 349 66 10 191 6 245 -8z"/>
</g>
</svg>
